<svg width="24" height="25" viewBox="0 0 24 25" fill="none" xmlns="http://www.w3.org/2000/svg">
<path opacity="0.4" d="M9 7.7V17.29C9 20.5 11 22.5 14.2 22.5H16.79C19.99 22.5 21.99 20.5 21.99 17.3V7.7C22 4.5 20 2.5 16.8 2.5H14.2C11 2.5 9 4.5 9 7.7Z" fill="#595959"/>
<path d="M12.43 8.62002L15.78 11.97C16.07 12.26 16.07 12.74 15.78 13.03L12.43 16.38C12.14 16.67 11.66 16.67 11.37 16.38C11.08 16.09 11.08 15.61 11.37 15.32L13.44 13.25H2.75C2.34 13.25 2 12.91 2 12.5C2 12.09 2.34 11.75 2.75 11.75H13.44L11.37 9.68002C11.22 9.53002 11.15 9.34002 11.15 9.15002C11.15 8.96002 11.22 8.77002 11.37 8.62002C11.66 8.32002 12.13 8.32002 12.43 8.62002Z" fill="#595959"/>
</svg>
