<svg width="67" height="67" viewBox="0 0 67 67" fill="none" xmlns="http://www.w3.org/2000/svg">
<path d="M44.6702 44.6694L33.5027 33.502L22.3352 44.6694" stroke="black" stroke-opacity="0.4" stroke-width="2.79187" stroke-linecap="round" stroke-linejoin="round"/>
<path d="M33.5024 33.502V58.6288" stroke="black" stroke-opacity="0.4" stroke-width="2.79187" stroke-linecap="round" stroke-linejoin="round"/>
<path d="M56.9263 51.3423C59.6493 49.8578 61.8004 47.5088 63.0402 44.6659C64.2799 41.8231 64.5375 38.6483 63.7726 35.6428C63.0076 32.6372 61.2634 29.972 58.8155 28.0678C56.3675 26.1635 53.3551 25.1287 50.2537 25.1267H46.736C45.8909 21.8581 44.3159 18.8236 42.1293 16.2513C39.9426 13.679 37.2013 11.6359 34.1114 10.2756C31.0216 8.91531 27.6635 8.27317 24.2897 8.39747C20.9159 8.52177 17.6142 9.40929 14.6328 10.9933C11.6514 12.5773 9.06786 14.8166 7.07645 17.5428C5.08504 20.269 3.73756 23.4112 3.13533 26.7331C2.53309 30.055 2.69177 33.4703 3.59943 36.722C4.50709 39.9738 6.14011 42.9775 8.37572 45.5073" stroke="black" stroke-opacity="0.4" stroke-width="2.79187" stroke-linecap="round" stroke-linejoin="round"/>
<path d="M44.6702 44.6694L33.5027 33.502L22.3352 44.6694" stroke="black" stroke-opacity="0.4" stroke-width="2.79187" stroke-linecap="round" stroke-linejoin="round"/>
</svg>
