<svg viewBox="0 0 512 512" xml:space="preserve" xmlns="http://www.w3.org/2000/svg"><path d="M463.518 94.909H193.885v-10.37c0-22.908-18.574-41.482-41.482-41.482H48.699c-22.908 0-41.482 18.574-41.482 41.482v342.225c0 22.907 18.574 41.482 41.482 41.482h414.819c22.908 0 41.482-18.575 41.482-41.482V136.391c0-22.908-18.574-41.482-41.482-41.482zm-435.56-10.37c0-11.435 9.308-20.741 20.741-20.741h103.705c11.433 0 20.741 9.306 20.741 20.741V115.65H463.519c11.433 0 20.741 9.306 20.741 20.741v20.741H27.958V84.539zm435.56 362.967H48.699c-11.433 0-20.741-9.307-20.741-20.741V177.874h456.301v248.892c0 11.432-9.307 20.74-20.741 20.74z" fill="#ffffff" class="fill-37404d"></path></svg>