<svg width="40" height="40" viewBox="0 0 40 40" fill="none" xmlns="http://www.w3.org/2000/svg">
<path opacity="0.4" d="M10 16.6666V13.3333C10 7.81659 11.6667 3.33325 20 3.33325C28.3333 3.33325 30 7.81659 30 13.3333V16.6666" stroke="#595959" stroke-width="1.5" stroke-linecap="round" stroke-linejoin="round"/>
<path opacity="0.4" d="M19.9999 30.8333C22.3011 30.8333 24.1666 28.9679 24.1666 26.6667C24.1666 24.3655 22.3011 22.5 19.9999 22.5C17.6987 22.5 15.8333 24.3655 15.8333 26.6667C15.8333 28.9679 17.6987 30.8333 19.9999 30.8333Z" stroke="#595959" stroke-width="1.5" stroke-linecap="round" stroke-linejoin="round"/>
<path d="M28.3333 36.6668H11.6666C4.99992 36.6668 3.33325 35.0001 3.33325 28.3334V25.0001C3.33325 18.3334 4.99992 16.6667 11.6666 16.6667H28.3333C34.9999 16.6667 36.6666 18.3334 36.6666 25.0001V28.3334C36.6666 35.0001 34.9999 36.6668 28.3333 36.6668Z" stroke="#595959" stroke-width="1.5" stroke-linecap="round" stroke-linejoin="round"/>
</svg>
