<svg width="249" height="112" viewBox="0 0 249 112" fill="none" xmlns="http://www.w3.org/2000/svg">
<path d="M18.5015 59C15.2082 59 12.6298 58.48 10.7665 57.44C8.90317 56.4 7.53817 54.84 6.6715 52.76C5.84817 50.68 5.3065 47.9283 5.0465 44.505C4.69984 39.6517 4.28817 34.82 3.8115 30.01L2.8365 19.155L10.7015 13.11C11.1782 12.7633 11.5898 12.59 11.9365 12.59C12.6732 12.59 13.0415 13.1317 13.0415 14.215C13.0415 16.5117 13.0632 18.505 13.1065 20.195L13.1715 33.78L13.1065 43.205C13.1065 44.9817 13.4532 46.2167 14.1465 46.91C14.8832 47.6033 16.2048 47.95 18.1115 47.95H18.8265L19.4765 53.475L18.8265 59H18.5015ZM18.2532 47.95H19.2932C20.7232 47.95 21.8499 47.7767 22.6732 47.43C23.5399 47.04 24.2765 46.455 24.8832 45.675C25.5332 44.8517 26.3565 43.5517 27.3532 41.775C28.8265 39.0883 30.4082 36.9867 32.0982 35.47C33.7882 33.91 35.6732 33.13 37.7532 33.13C39.8765 33.13 41.6965 33.8017 43.2132 35.145C44.7299 36.4883 45.8782 38.265 46.6582 40.475C47.4815 42.5117 48.1749 44.0283 48.7382 45.025C49.3449 46.0217 50.0815 46.7583 50.9482 47.235C51.8149 47.7117 52.9632 47.95 54.3932 47.95H54.7182L55.3682 53.475L54.7182 59H54.3932C52.9632 59 51.5332 58.6317 50.1032 57.895C48.6732 57.115 47.4599 56.0317 46.4632 54.645C45.3365 57.115 43.6899 58.7617 41.5232 59.585C40.4832 59.975 39.3999 60.17 38.2732 60.17C36.4099 60.17 34.5032 59.7367 32.5532 58.87C30.6032 57.96 28.8049 56.725 27.1582 55.165C26.5082 56.3783 25.7282 57.2667 24.8182 57.83C23.9082 58.3933 22.9982 58.74 22.0882 58.87C21.2215 58.9567 20.0949 59 18.7082 59H18.2532V47.95ZM31.3182 46.325C32.2715 47.1917 33.8965 47.9717 36.1932 48.665C38.4899 49.3583 40.4399 49.705 42.0432 49.705C42.5199 49.705 42.8449 49.6833 43.0182 49.64C43.0182 48.2967 42.6282 46.8667 41.8482 45.35C41.1115 43.8333 39.8765 42.9017 38.1432 42.555C37.9265 42.5117 37.6232 42.49 37.2332 42.49C36.1065 42.49 35.0232 42.8367 33.9832 43.53C32.9865 44.2233 32.0982 45.155 31.3182 46.325ZM54.1809 47.95H54.7009C57.0409 47.95 58.8176 47.755 60.0309 47.365C61.2876 46.975 62.2193 46.3467 62.8259 45.48C63.4759 44.6133 64.1043 43.2917 64.7109 41.515C64.8843 41.0383 65.1226 40.67 65.4259 40.41C65.7293 40.15 66.0759 40.02 66.4659 40.02C66.9859 40.02 67.4193 40.2367 67.7659 40.67C68.1126 41.1033 68.2209 41.6667 68.0909 42.36C67.9609 43.0533 67.8959 43.6817 67.8959 44.245C67.8959 45.7183 68.3076 46.715 69.1309 47.235C69.9543 47.7117 71.2326 47.95 72.9659 47.95C74.7426 47.95 76.0643 47.5383 76.9309 46.715C77.8409 45.8483 78.5559 44.18 79.0759 41.71C79.2059 41.1467 79.4226 40.7133 79.7259 40.41C80.0726 40.1067 80.4409 39.955 80.8309 39.955C81.3076 39.955 81.7193 40.1717 82.0659 40.605C82.4126 40.995 82.5643 41.4933 82.5209 42.1C82.4776 42.36 82.4559 42.7283 82.4559 43.205C82.4559 44.895 82.9109 46.1083 83.8209 46.845C84.7309 47.5817 86.0526 47.95 87.7859 47.95H87.9809C90.3643 47.95 91.9459 47.3217 92.7259 46.065C92.4659 45.5883 91.7076 44.4183 90.4509 42.555L88.6959 39.955L93.5059 34.3C93.8959 33.8233 94.2643 33.585 94.6109 33.585C94.8709 33.585 95.1743 33.8233 95.5209 34.3C96.2143 35.2967 96.8643 36.965 97.4709 39.305C98.0776 41.6017 98.3809 43.8983 98.3809 46.195C98.3809 47.5817 98.2726 48.7733 98.0559 49.77C97.5359 52.1533 96.4743 54.2983 94.8709 56.205C93.2676 58.0683 90.9709 59 87.9809 59H87.7209C86.1176 59 84.5576 58.6317 83.0409 57.895C81.5676 57.1583 80.5709 56.14 80.0509 54.84C79.3576 56.14 78.3176 57.1583 76.9309 57.895C75.5876 58.6317 74.2659 59 72.9659 59H72.8359C70.4093 59 68.5026 58.6317 67.1159 57.895C65.7293 57.1583 64.7109 56.14 64.0609 54.84C63.4543 56.1833 62.3059 57.2233 60.6159 57.96C58.9693 58.6533 56.9976 59 54.7009 59H54.1809V47.95ZM71.6009 28.775C71.3409 28.5583 71.2109 28.3633 71.2109 28.19C71.2109 27.9733 71.3409 27.735 71.6009 27.475L74.7859 24.225C75.0459 23.965 75.2626 23.835 75.4359 23.835C75.6526 23.835 75.8476 23.965 76.0209 24.225L79.3359 27.475C79.5959 27.735 79.7259 27.9517 79.7259 28.125C79.7259 28.2983 79.5959 28.515 79.3359 28.775L76.1509 32.025C75.9343 32.2417 75.7393 32.35 75.5659 32.35C75.3926 32.35 75.1976 32.2417 74.9809 32.025L71.6009 28.775ZM77.0609 22.6C76.8443 22.3833 76.7359 22.21 76.7359 22.08C76.7359 21.95 76.8443 21.7767 77.0609 21.56L79.9859 18.57C80.2893 18.3533 80.4843 18.245 80.5709 18.245C80.7009 18.245 80.8743 18.3533 81.0909 18.57L84.0809 21.495C84.2976 21.6683 84.4059 21.8633 84.4059 22.08C84.4059 22.2533 84.2976 22.4267 84.0809 22.6L81.0259 25.655C80.8526 25.8283 80.7009 25.915 80.5709 25.915C80.4843 25.915 80.3543 25.8283 80.1809 25.655L77.0609 22.6ZM81.7409 28.775C81.4809 28.5583 81.3509 28.3633 81.3509 28.19C81.3509 27.9733 81.4809 27.735 81.7409 27.475L84.9259 24.225C85.1859 23.965 85.4026 23.835 85.5759 23.835C85.7926 23.835 85.9876 23.965 86.1609 24.225L89.4759 27.475C89.7359 27.735 89.8659 27.9517 89.8659 28.125C89.8659 28.2983 89.7359 28.515 89.4759 28.775L86.2909 32.025C86.0743 32.2417 85.8793 32.35 85.7059 32.35C85.5326 32.35 85.3376 32.2417 85.1209 32.025L81.7409 28.775Z" fill="#F13333"/>
<path d="M124.701 77.98C118.634 77.98 114.214 76.4417 111.441 73.365C108.668 70.3317 107.281 66.3883 107.281 61.535C107.281 57.3317 108.213 52.9333 110.076 48.34C110.249 47.9067 110.488 47.5817 110.791 47.365C111.094 47.1483 111.398 47.04 111.701 47.04C112.091 47.04 112.416 47.1917 112.676 47.495C112.979 47.755 113.131 48.1233 113.131 48.6C113.131 48.73 113.088 48.9683 113.001 49.315C112.004 52.695 111.506 55.4033 111.506 57.44C111.506 60.43 112.503 62.7483 114.496 64.395C116.533 66.085 119.934 66.93 124.701 66.93C127.128 66.93 129.403 66.7133 131.526 66.28C133.649 65.8467 135.426 65.2833 136.856 64.59C138.329 63.94 139.283 63.3117 139.716 62.705C139.586 62.6617 138.698 62.51 137.051 62.25C132.978 61.73 129.511 60.9717 126.651 59.975C123.834 58.9783 122.426 57.3317 122.426 55.035C122.426 51.5683 123.249 48.1017 124.896 44.635C126.543 41.125 128.861 38.265 131.851 36.055C134.841 33.845 138.221 32.8267 141.991 33C143.118 33 144.331 33.325 145.631 33.975C146.454 34.365 146.866 34.8417 146.866 35.405C146.866 35.6217 146.801 35.9033 146.671 36.25L144.656 42.685C144.526 43.075 144.374 43.3567 144.201 43.53C144.071 43.7033 143.854 43.79 143.551 43.79C143.421 43.79 143.183 43.7467 142.836 43.66C141.969 43.4 140.778 43.2267 139.261 43.14C137.441 43.14 135.664 43.465 133.931 44.115C132.198 44.7217 130.746 45.48 129.576 46.39C128.406 47.2567 127.734 48.0583 127.561 48.795C127.431 49.3583 127.864 49.8133 128.861 50.16C129.901 50.4633 131.526 50.7883 133.736 51.135C134.386 51.2217 135.361 51.395 136.661 51.655C139.651 52.2617 141.753 53.1283 142.966 54.255C144.179 55.3383 144.786 57.0283 144.786 59.325C144.786 62.8783 143.919 66.0633 142.186 68.88C140.496 71.74 138.134 73.9717 135.101 75.575C132.068 77.1783 128.601 77.98 124.701 77.98ZM159.886 77.98C159.019 77.98 157.503 77.2867 155.336 75.9C153.213 74.5133 151.458 73.1267 150.071 71.74C149.811 71.48 149.681 71.22 149.681 70.96C149.681 70.7 149.811 70.4617 150.071 70.245C150.331 70.0283 150.678 69.8983 151.111 69.855C155.444 69.1617 159.518 67.905 163.331 66.085C167.144 64.3083 169.744 62.0117 171.131 59.195C168.011 59.3683 165.454 59.455 163.461 59.455C160.384 59.455 157.871 58.5883 155.921 56.855C153.971 55.1217 152.996 52.3267 152.996 48.47C152.996 47.9933 153.039 47.1917 153.126 46.065C153.603 41.7317 154.816 38.2433 156.766 35.6C158.716 32.9133 161.186 31.57 164.176 31.57C167.383 31.57 170.069 33.0217 172.236 35.925C174.403 38.8283 175.876 42.8367 176.656 47.95H179.451L180.101 53.475L179.451 59H176.981C176.504 63.03 175.248 66.475 173.211 69.335C171.174 72.195 168.899 74.34 166.386 75.77C163.873 77.2433 161.706 77.98 159.886 77.98ZM157.026 45.805C157.633 46.8017 158.781 47.495 160.471 47.885C162.204 48.2317 163.894 48.405 165.541 48.405C167.274 48.405 169.116 48.34 171.066 48.21C170.286 46.0867 169.159 44.44 167.686 43.27C166.256 42.1 164.913 41.45 163.656 41.32C161.836 41.19 160.341 41.6017 159.171 42.555C158.001 43.465 157.286 44.5483 157.026 45.805ZM178.874 47.95H180.174C183.858 47.95 186.934 47.82 189.404 47.56C191.918 47.2567 193.478 46.5633 194.084 45.48C193.218 43.66 191.549 41.71 189.079 39.63C186.653 37.5067 184.031 35.4917 181.214 33.585L182.514 24.16L205.849 14.02C206.196 13.8467 206.564 13.76 206.954 13.76C207.344 13.76 207.648 13.89 207.864 14.15C208.081 14.3667 208.189 14.67 208.189 15.06C208.189 15.2767 208.168 15.45 208.124 15.58L206.434 23.965L191.029 30.14C193.153 32.5233 194.973 35.1883 196.489 38.135C198.049 41.0383 198.829 43.855 198.829 46.585C198.829 48.145 198.548 49.575 197.984 50.875C196.641 54.0383 194.474 56.1833 191.484 57.31C188.494 58.4367 184.659 59 179.979 59H178.874V47.95ZM183.554 16.945L203.769 8.17C204.029 8.04 204.268 7.975 204.484 7.975C204.961 7.975 205.156 8.3 205.069 8.95L204.614 12.525L182.774 22.145L183.554 16.945ZM211.937 77.98C211.07 77.98 209.554 77.2867 207.387 75.9C205.264 74.5133 203.509 73.1267 202.122 71.74C201.862 71.48 201.732 71.22 201.732 70.96C201.732 70.7 201.862 70.4617 202.122 70.245C202.382 70.0283 202.729 69.8983 203.162 69.855C207.495 69.1617 211.569 67.905 215.382 66.085C219.195 64.3083 221.795 62.0117 223.182 59.195C220.062 59.3683 217.505 59.455 215.512 59.455C212.435 59.455 209.922 58.5883 207.972 56.855C206.022 55.1217 205.047 52.3267 205.047 48.47C205.047 47.9933 205.09 47.1917 205.177 46.065C205.654 41.7317 206.867 38.2433 208.817 35.6C210.767 32.9133 213.237 31.57 216.227 31.57C219.434 31.57 222.12 33.0217 224.287 35.925C226.454 38.8283 227.927 42.8367 228.707 47.95H231.502L232.152 53.475L231.502 59H229.032C228.555 63.03 227.299 66.475 225.262 69.335C223.225 72.195 220.95 74.34 218.437 75.77C215.924 77.2433 213.757 77.98 211.937 77.98ZM209.077 45.805C209.684 46.8017 210.832 47.495 212.522 47.885C214.255 48.2317 215.945 48.405 217.592 48.405C219.325 48.405 221.167 48.34 223.117 48.21C222.337 46.0867 221.21 44.44 219.737 43.27C218.307 42.1 216.964 41.45 215.707 41.32C213.887 41.19 212.392 41.6017 211.222 42.555C210.052 43.465 209.337 44.5483 209.077 45.805ZM230.925 47.95H231.64C233.893 47.95 235.497 47.5383 236.45 46.715C237.447 45.8917 237.902 44.635 237.815 42.945C237.512 38.3083 236.688 30.3783 235.345 19.155L243.21 13.11C243.687 12.7633 244.077 12.59 244.38 12.59C245.117 12.59 245.507 13.1317 245.55 14.215C245.94 19.3283 246.135 24.9183 246.135 30.985C246.135 35.9683 246.027 40.475 245.81 44.505C245.637 49.0983 244.358 52.6733 241.975 55.23C239.592 57.7433 236.017 59 231.25 59H230.925V47.95Z" fill="#2B2F3E"/>
<path d="M47.9823 88.76L53.8223 102.02L59.6223 88.76H60.3423V103H59.5223L59.5423 90.8L54.1623 103H53.4823L48.0623 90.88L48.0823 103H47.2623V88.76H47.9823ZM68.8354 93H69.6554V103H68.8354V93ZM68.4354 89.62C68.4354 89.3933 68.5087 89.2 68.6554 89.04C68.8154 88.88 69.0154 88.8 69.2554 88.8C69.4821 88.8 69.6754 88.88 69.8354 89.04C70.0087 89.2 70.0954 89.3933 70.0954 89.62C70.0954 89.86 70.0154 90.0667 69.8554 90.24C69.6954 90.4 69.4954 90.48 69.2554 90.48C69.0154 90.48 68.8154 90.4 68.6554 90.24C68.5087 90.08 68.4354 89.8733 68.4354 89.62ZM77.9713 88.28H78.7913V94.8C79.0847 94.1333 79.538 93.6267 80.1513 93.28C80.7647 92.9333 81.4713 92.76 82.2713 92.76C84.698 92.76 85.9113 94.0267 85.9113 96.56V103H85.0713V96.64C85.0713 95.5867 84.8513 94.8133 84.4113 94.32C83.9847 93.8133 83.298 93.56 82.3513 93.56C81.2713 93.56 80.4047 93.8867 79.7513 94.54C79.1113 95.1933 78.7913 96.0733 78.7913 97.18V103H77.9713V88.28ZM97.9576 103.14C97.0509 103.14 96.2642 102.927 95.5976 102.5C94.9176 102.06 94.3976 101.46 94.0376 100.7C93.6776 99.9267 93.4976 99.02 93.4976 97.98C93.4976 96.9 93.6842 95.98 94.0576 95.22C94.4309 94.4333 94.9509 93.8267 95.6176 93.4C96.2976 92.9733 97.0776 92.76 97.9576 92.76C98.7976 92.76 99.5176 92.94 100.118 93.3C100.718 93.66 101.171 94.1867 101.478 94.88V93H102.318V103H101.478V100.98C101.171 101.687 100.718 102.227 100.118 102.6C99.5176 102.96 98.7976 103.14 97.9576 103.14ZM94.3976 97.98C94.3976 99.3667 94.7109 100.44 95.3376 101.2C95.9776 101.947 96.8576 102.32 97.9776 102.32C99.0976 102.32 99.9576 101.94 100.558 101.18C101.171 100.407 101.478 99.3267 101.478 97.94C101.478 96.54 101.171 95.4667 100.558 94.72C99.9442 93.96 99.0776 93.58 97.9576 93.58C96.8376 93.58 95.9642 93.9667 95.3376 94.74C94.7109 95.5133 94.3976 96.5933 94.3976 97.98ZM109.954 95.76C109.954 94.88 109.901 93.96 109.794 93H110.594L110.734 94.9C111.014 94.2067 111.467 93.68 112.094 93.32C112.721 92.9467 113.441 92.76 114.254 92.76C116.681 92.76 117.894 94.0267 117.894 96.56V103H117.054V96.64C117.054 95.5867 116.834 94.8133 116.394 94.32C115.967 93.8133 115.281 93.56 114.334 93.56C113.254 93.56 112.387 93.8867 111.734 94.54C111.094 95.1933 110.774 96.0733 110.774 97.18V103H109.954V95.76ZM136.238 88.76H141.498C142.898 88.76 143.998 89.1 144.798 89.78C145.598 90.46 145.998 91.4 145.998 92.6C145.998 93.8 145.598 94.7467 144.798 95.44C143.998 96.1333 142.898 96.48 141.498 96.48H137.058V103H136.238V88.76ZM141.478 95.66C142.665 95.66 143.565 95.4 144.178 94.88C144.791 94.3467 145.098 93.5867 145.098 92.6C145.098 91.6133 144.791 90.86 144.178 90.34C143.565 89.8067 142.665 89.54 141.478 89.54H137.058V95.66H141.478ZM156.65 103.14C155.743 103.14 154.956 102.927 154.29 102.5C153.61 102.06 153.09 101.46 152.73 100.7C152.37 99.9267 152.19 99.02 152.19 97.98C152.19 96.9 152.376 95.98 152.75 95.22C153.123 94.4333 153.643 93.8267 154.31 93.4C154.99 92.9733 155.77 92.76 156.65 92.76C157.49 92.76 158.21 92.94 158.81 93.3C159.41 93.66 159.863 94.1867 160.17 94.88V93H161.01V103H160.17V100.98C159.863 101.687 159.41 102.227 158.81 102.6C158.21 102.96 157.49 103.14 156.65 103.14ZM153.09 97.98C153.09 99.3667 153.403 100.44 154.03 101.2C154.67 101.947 155.55 102.32 156.67 102.32C157.79 102.32 158.65 101.94 159.25 101.18C159.863 100.407 160.17 99.3267 160.17 97.94C160.17 96.54 159.863 95.4667 159.25 94.72C158.636 93.96 157.77 93.58 156.65 93.58C155.53 93.58 154.656 93.9667 154.03 94.74C153.403 95.5133 153.09 96.5933 153.09 97.98ZM168.646 95.76C168.646 94.88 168.593 93.96 168.486 93H169.286L169.426 94.9C169.706 94.2067 170.16 93.68 170.786 93.32C171.413 92.9467 172.133 92.76 172.946 92.76C175.373 92.76 176.586 94.0267 176.586 96.56V103H175.746V96.64C175.746 95.5867 175.526 94.8133 175.086 94.32C174.66 93.8133 173.973 93.56 173.026 93.56C171.946 93.56 171.08 93.8867 170.426 94.54C169.786 95.1933 169.466 96.0733 169.466 97.18V103H168.646V95.76ZM192.713 101.74C192.286 102.167 191.733 102.507 191.053 102.76C190.386 103.013 189.693 103.14 188.973 103.14C187.973 103.14 187.119 102.933 186.413 102.52C185.693 102.107 185.139 101.513 184.753 100.74C184.366 99.9667 184.173 99.04 184.173 97.96C184.173 96.9333 184.366 96.02 184.753 95.22C185.139 94.4333 185.679 93.8267 186.373 93.4C187.079 92.9733 187.886 92.76 188.793 92.76C189.646 92.76 190.379 92.9467 190.993 93.32C191.606 93.6933 192.073 94.24 192.393 94.96C192.726 95.68 192.893 96.54 192.893 97.54V97.78H185.113V97.96C185.113 99.36 185.439 100.44 186.093 101.2C186.759 101.947 187.706 102.32 188.933 102.32C189.559 102.32 190.146 102.22 190.693 102.02C191.239 101.807 191.779 101.473 192.313 101.02L192.713 101.74ZM192.053 96.96C191.973 95.8533 191.653 95.0067 191.093 94.42C190.533 93.82 189.766 93.52 188.793 93.52C187.793 93.52 186.973 93.8267 186.333 94.44C185.706 95.04 185.319 95.88 185.173 96.96H192.053ZM200.102 88.28H200.922V103H200.102V88.28Z" fill="black"/>
</svg>
