<?xml version="1.0" encoding="UTF-8"?>
<!DOCTYPE svg PUBLIC "-//W3C//DTD SVG 1.1//EN" "http://www.w3.org/Graphics/SVG/1.1/DTD/svg11.dtd">
<!-- Creator: CorelDRAW -->
<svg xmlns="http://www.w3.org/2000/svg" xml:space="preserve" width="11in" height="8.5in" style="shape-rendering:geometricPrecision; text-rendering:geometricPrecision; image-rendering:optimizeQuality; fill-rule:evenodd; clip-rule:evenodd"
viewBox="0 0 11 8.5"
 xmlns:xlink="http://www.w3.org/1999/xlink">
 <defs>
  <style type="text/css">
   <![CDATA[
    .fil1 {fill:white}
    .fil0 {fill:url(#id0)}
   ]]>
  </style>
  <linearGradient id="id0" gradientUnits="userSpaceOnUse" x1="3.32596" y1="3.58483" x2="7.68146" y2="4.92499">
   <stop offset="0" style="stop-color:#F70A0A"/>
   <stop offset="1" style="stop-color:#B32C22"/>
  </linearGradient>
 </defs>
 <g id="Layer_x0020_1">
  <metadata id="CorelCorpID_0Corel-Layer"/>
  <g id="_694905296">
   <path id="_697969080" class="fil0" d="M7.69842 4.9375c-0.512201,0.61963 -1.14229,1.13872 -1.90698,1.59545 -0.342945,0.204827 -0.769902,0.255256 -1.05768,0.0117283 -0.568043,-0.480591 -1.16579,-1.23109 -1.53806,-1.86441 -0.223528,-0.38028 -0.180563,-0.789803 0.100504,-1.12981 0.512201,-0.619622 1.14228,-1.13871 1.90697,-1.59544 0.341173,-0.203756 0.754819,-0.233402 1.04039,0.0100197 0.529028,0.450965 1.18283,1.21617 1.55536,1.8033 0.236315,0.372465 0.180555,0.829181 -0.100504,1.16917z"/>
   <path id="_697969536" class="fil1" d="M5.24867 5.70003c0.0926535,-0.13435 0.267492,-0.17774 0.390543,-0.0969134 0.123059,0.080811 0.147701,0.255248 0.0550512,0.38961 -0.0926457,0.134346 -0.267512,0.177748 -0.390567,0.0969134 -0.123043,-0.0808071 -0.147693,-0.255244 -0.0550276,-0.38961z"/>
   <path id="_697969056" class="fil1" d="M5.83676 5.38336c0.0926575,-0.134346 0.267496,-0.177736 0.390547,-0.0969094 0.123055,0.080811 0.147693,0.25524 0.0550433,0.389602 -0.0926378,0.134354 -0.267512,0.177752 -0.390563,0.0969134 -0.123043,-0.0808071 -0.147693,-0.255236 -0.0550276,-0.389606z"/>
   <path id="_697965520" class="fil1" d="M4.19575 4.95461c0.416846,0.362512 0.96089,0.411831 1.46905,0.221358 0.283248,-0.106169 0.572311,-0.286165 0.81011,-0.535854 0.168791,-0.17724 0.469417,-0.639417 0.514028,-0.918937 0.043,-0.206346 -0.0675197,-0.232654 -0.147965,-0.0874449 -0.238354,0.43026 -0.570008,0.723736 -1.03653,0.885449 -0.366992,0.127209 -0.734689,0.0985866 -0.990169,-0.133909 -0.272193,-0.247709 -0.275976,-0.336134 -0.422157,-0.22174 -0.163693,0.128106 -0.344697,0.323055 -0.383083,0.534106 -0.0135236,0.074378 0.0406299,0.129937 0.186713,0.256972z"/>
   <path id="_424641376" class="fil1" d="M3.79332 4.03216c0.382193,-0.991059 1.69723,-1.91253 2.54193,-1.42022 0.129539,0.0790709 0.207339,0.191299 0.243827,0.320488 0.116114,0.41102 -0.165898,0.931047 -0.500874,1.17302 -0.575126,0.415433 -1.25294,0.195862 -1.27549,-0.421933 -0.00677165,-0.185461 0.0666575,-0.222071 -0.181783,-0.127858 -0.300728,0.114024 -0.490114,0.338339 -0.636717,0.590016 -0.167213,0.286992 -0.352594,0.305807 -0.190894,-0.113516zm1.7742 -1.02435c0.228909,-0.0779606 0.470075,0.022126 0.538654,0.22352 0.0686024,0.201406 -0.061374,0.42787 -0.29028,0.505827 -0.228913,0.0779449 -0.470071,-0.0221417 -0.538657,-0.223528 -0.0685866,-0.201409 0.0613819,-0.427874 0.290283,-0.505819z"/>
   <path id="_691198272" class="fil1" d="M6.36588 4.95704c0.0926614,-0.13435 0.267496,-0.17774 0.390547,-0.0969134 0.123055,0.080811 0.147701,0.255248 0.0550512,0.38961 -0.0926457,0.134346 -0.26752,0.177748 -0.390567,0.0969055 -0.123047,-0.0807992 -0.147693,-0.255236 -0.0550315,-0.389602z"/>
  </g>
 </g>
</svg>
